<svg width="1254" height="984" viewBox="0 0 1254 984" fill="none" xmlns="http://www.w3.org/2000/svg">
<path d="M269.828 539.731C269.839 539.728 269.85 539.725 269.861 539.722L269.836 539.698C269.834 539.709 269.831 539.72 269.828 539.731Z" fill="url(#paint0_linear_3930_32)"/>
<path d="M269.828 539.731C266.765 540.52 263.407 541.186 259.778 541.655C246.177 543.339 232.824 536.898 225.69 525.205C223.344 521.359 220.999 517.316 218.592 513.166C218.177 512.45 217.76 511.731 217.341 511.01C201.287 483.312 181.865 451.206 139.947 439.066C65.2295 417.34 0 481.702 0 481.702C37.82 487.447 56.4024 513.993 74.603 539.993C90.3093 562.43 105.731 584.46 132.986 592.367C141.904 594.968 150.427 596.182 158.453 596.455C197.844 597.693 224.649 575.273 225.145 574.852C225.097 574.852 224.92 574.873 224.622 574.91C221.645 575.272 206.596 577.104 188.108 573.613C169.676 570.145 147.801 561.424 131.078 540.689C87.3525 486.484 57.8717 479.695 56.955 479.497C89.2851 482.336 105.155 497.966 122.134 514.688C138.201 530.513 155.262 547.316 188.207 555.181C192.418 556.197 196.481 557.015 200.395 557.683C229.183 562.663 250.166 559.195 265.402 553.769C267.083 549.147 268.566 544.476 269.828 539.731Z" fill="url(#paint1_linear_3930_32)"/>
<path d="M577.626 616.819C495.254 616.819 417.786 584.737 359.543 526.493L359.666 526.543C301.423 468.275 269.341 390.832 269.341 308.434C269.341 249.968 285.494 194.004 315.693 145.596C328.055 125.777 342.771 107.246 359.691 90.3253C376.166 73.8508 394.176 59.4819 413.401 47.318C462.131 16.4993 518.69 -7.04589e-07 577.775 0C592.862 1.79914e-07 607.776 1.06525 622.467 3.1958C633.541 4.78133 644.466 6.96141 655.218 9.7361C696.813 20.4384 735.659 39.7867 769.624 66.8645C775.049 71.1999 778.171 77.8889 777.749 84.8255V84.9494C774.801 104.818 765.561 122.655 752.133 136.33C735.906 152.83 710.043 155.456 690.942 142.4C680.958 135.587 670.33 129.617 659.182 124.662C640.973 116.536 621.303 111.086 600.74 108.732C593.184 107.865 585.529 107.419 577.75 107.419C526.692 107.419 480.042 126.545 444.541 158.007C417.067 182.36 396.282 214.12 385.357 250.117C379.139 270.604 376.091 292.455 376.835 315.098C380.353 422.518 468.944 508.73 576.437 509.399C687.845 510.093 778.716 419.669 778.716 308.409C778.716 246.623 802.449 190.263 841.319 148.024C884.698 100.829 946.905 71.1999 1015.92 71.1999C1112.02 71.1999 1194.97 128.65 1232.2 211.023C1245.65 240.727 1253.13 273.726 1253.13 308.409C1253.13 319.805 1252.32 331.003 1250.76 341.953C1238.05 431.337 1175.34 504.841 1091.96 533.133C1087.89 534.495 1083.81 535.759 1079.64 536.923C1059.35 542.596 1037.97 545.619 1015.9 545.619C1006.66 545.619 994.099 543.984 982.233 541.952C950.126 536.477 926.219 508.879 925.971 476.301V475.608C925.971 469.885 926.491 464.286 927.482 458.861C929.316 448.703 932.833 439.116 937.689 430.396C941.604 423.36 950.349 420.635 957.508 424.276C975.073 433.17 994.917 438.175 1015.9 438.175C1022.07 438.175 1028.11 437.729 1034.03 436.886C1054.42 434.013 1073.33 426.382 1089.55 415.16C1123.1 391.971 1145.22 353.374 1145.64 309.673V308.385C1145.64 268.92 1127.93 233.468 1100.01 209.661C1076.3 189.445 1045.26 177.579 1011.47 178.694C941.182 181.022 886.457 239.736 886.085 310.044C885.788 366.925 870.181 421.403 841.245 468.77C828.56 489.506 813.349 508.879 795.735 526.493C737.467 584.737 659.999 616.819 577.626 616.819Z" fill="url(#paint2_linear_3930_32)"/>
<path d="M101.069 983.826C63.9876 983.826 38.1172 957.956 38.1172 921.392C38.1172 884.484 64.1601 858.268 101.241 858.268C118.143 858.268 133.148 864.477 144.703 875.515L134.873 888.105C125.042 878.965 113.831 874.308 101.069 874.308C73.9908 874.308 55.3641 893.279 55.3641 920.702C55.3641 948.47 74.1633 967.786 101.414 967.786C114.521 967.786 125.732 963.82 135.735 954.506L145.738 967.096C134.528 977.962 119.523 983.826 101.069 983.826Z" fill="black"/>
<path d="M294.749 981.411H276.467L264.395 954.851H197.821L185.921 981.411H167.812L221.967 860.683H240.594L294.749 981.411ZM231.453 877.412H231.108C229.556 881.207 226.451 888.623 221.45 900.006L204.548 939.674H257.668L240.766 899.661C235.592 887.76 232.66 881.207 231.453 877.412Z" fill="black"/>
<path d="M422.837 981.411H401.624L364.37 938.984H344.709V981.411H327.807V860.683H375.926C401.106 860.683 417.663 876.033 417.663 899.661C417.663 920.185 404.901 935.017 384.722 938.294L422.837 981.411ZM400.761 900.178C400.761 885.346 391.275 876.377 375.408 876.377H344.709V923.462H375.581C391.275 923.462 400.761 914.666 400.761 900.178Z" fill="black"/>
<path d="M532.807 918.288V918.805C544.88 922.944 553.331 933.982 553.331 947.78C553.331 969.683 539.016 981.411 512.628 981.411H459.335V860.683H512.628C535.566 860.683 549.536 872.928 549.536 892.935C549.536 904.318 543.328 913.631 532.807 918.288ZM512.8 875.688H475.892V912.079H512.111C525.218 912.079 532.634 905.352 532.634 894.142C532.634 882.586 525.218 875.688 512.8 875.688ZM475.892 966.062H514.353C528.323 966.062 536.429 958.645 536.429 946.228C536.429 934.155 528.15 926.739 513.663 926.739H475.892V966.062Z" fill="black"/>
<path d="M645.327 983.998C609.281 983.998 584.273 958.3 584.273 921.392C584.273 883.794 609.281 858.096 646.362 858.096C682.408 858.096 707.416 883.794 707.416 920.702C707.416 958.3 682.408 983.998 645.327 983.998ZM645.672 968.304C671.887 968.304 690.169 948.987 690.169 921.392C690.169 892.935 672.232 873.79 646.017 873.79C619.802 873.79 601.52 892.935 601.52 920.702C601.52 948.987 619.457 968.304 645.672 968.304Z" fill="black"/>
<path d="M801.827 983.826C764.746 983.826 738.876 957.956 738.876 921.392C738.876 884.484 764.919 858.268 802 858.268C818.902 858.268 833.906 864.477 845.462 875.515L835.631 888.105C825.8 878.965 814.59 874.308 801.827 874.308C774.749 874.308 756.123 893.279 756.123 920.702C756.123 948.47 774.922 967.786 802.172 967.786C815.28 967.786 826.49 963.82 836.493 954.506L846.497 967.096C835.286 977.962 820.281 983.826 801.827 983.826Z" fill="black"/>
<path d="M995.508 981.411H977.226L965.153 954.851H898.58L886.679 981.411H868.57L922.726 860.683H941.352L995.508 981.411ZM932.211 877.412H931.866C930.314 881.207 927.21 888.623 922.208 900.006L905.306 939.674H958.427L941.525 899.661C936.351 887.76 933.419 881.207 932.211 877.412Z" fill="black"/>
<path d="M1045.12 860.683V965.889H1110.14V981.411H1028.57V860.683H1045.12Z" fill="black"/>
<path d="M1196.07 983.826C1158.99 983.826 1133.12 957.956 1133.12 921.392C1133.12 884.484 1159.17 858.268 1196.25 858.268C1213.15 858.268 1228.15 864.477 1239.71 875.515L1229.88 888.105C1220.05 878.965 1208.84 874.308 1196.07 874.308C1169 874.308 1150.37 893.279 1150.37 920.702C1150.37 948.47 1169.17 967.786 1196.42 967.786C1209.53 967.786 1220.74 963.82 1230.74 954.506L1240.74 967.096C1229.53 977.962 1214.53 983.826 1196.07 983.826Z" fill="black"/>
<defs>
<linearGradient id="paint0_linear_3930_32" x1="4.40933e-06" y1="616.853" x2="1177.63" y2="-120.806" gradientUnits="userSpaceOnUse">
<stop offset="0.15" stop-color="#0D4643"/>
<stop offset="1" stop-color="#88A83F"/>
</linearGradient>
<linearGradient id="paint1_linear_3930_32" x1="4.40933e-06" y1="616.853" x2="1177.63" y2="-120.806" gradientUnits="userSpaceOnUse">
<stop offset="0.15" stop-color="#0D4643"/>
<stop offset="1" stop-color="#88A83F"/>
</linearGradient>
<linearGradient id="paint2_linear_3930_32" x1="4.40933e-06" y1="616.853" x2="1177.63" y2="-120.806" gradientUnits="userSpaceOnUse">
<stop offset="0.15" stop-color="#0D4643"/>
<stop offset="1" stop-color="#88A83F"/>
</linearGradient>
</defs>
</svg>
