<svg width="143" height="99" viewBox="0 0 143 99" fill="none" xmlns="http://www.w3.org/2000/svg">
<g clip-path="url(#clip0_3470_39019)">
<path d="M42.084 33.0223C42.6688 32.8469 43.2066 32.8076 43.6975 32.9044C44.1919 32.9945 44.6117 33.2119 44.9569 33.5567C45.3071 33.9001 45.5632 34.3511 45.7249 34.91C45.8868 35.4687 45.9119 35.989 45.8005 36.4709C45.6927 36.9459 45.4551 37.3578 45.0876 37.7064C44.7238 38.0482 44.2494 38.3069 43.6646 38.4824L41.9947 38.9833L40.4141 33.5233L42.084 33.0223ZM43.4945 37.8948C44.1871 37.687 44.6619 37.3431 44.9187 36.8631C45.1741 36.3778 45.2044 35.7983 45.0093 35.1247C44.8128 34.4457 44.4746 33.971 43.9949 33.7006C43.5203 33.4287 42.9392 33.3958 42.2517 33.602L41.2821 33.8929L42.5249 38.1857L43.4945 37.8948ZM47.2104 33.5108C47.2625 33.2284 47.3817 32.9855 47.5681 32.782C47.7596 32.5769 48.0196 32.4252 48.3479 32.3267L48.5611 33.063L48.3764 33.1184C47.5915 33.3539 47.3245 33.9051 47.5755 34.772L48.2513 37.1064L47.551 37.3165L46.3083 33.0236L47.0086 32.8136L47.2104 33.5108ZM49.6496 34.3371C49.5226 33.8984 49.4987 33.4884 49.5779 33.1071C49.6556 32.7205 49.8193 32.3904 50.0691 32.1168C50.324 31.8417 50.6387 31.6479 51.0132 31.5357C51.3826 31.4248 51.7266 31.4096 52.0454 31.4899C52.3642 31.5702 52.6258 31.7131 52.8302 31.9185L52.6034 31.1352L53.3114 30.9228L54.5542 35.2156L53.8462 35.428L53.6149 34.6289C53.549 34.9212 53.4016 35.1924 53.173 35.4427C52.9479 35.6861 52.6533 35.8624 52.289 35.9717C51.9145 36.0841 51.5487 36.0917 51.1916 35.9945C50.8345 35.8972 50.5196 35.7051 50.2469 35.4179C49.9742 35.1309 49.7752 34.7706 49.6496 34.3371ZM53.2225 33.2738C53.1288 32.95 52.9831 32.6872 52.7852 32.4854C52.5875 32.2837 52.3601 32.1532 52.1032 32.0941C51.85 32.0281 51.5925 32.0344 51.3309 32.113C51.0692 32.1914 50.8488 32.3256 50.6696 32.5157C50.4904 32.7056 50.3715 32.9399 50.3127 33.2186C50.254 33.4974 50.2716 33.7986 50.3653 34.1224C50.4605 34.4514 50.6078 34.7194 50.8072 34.9264C51.0049 35.1281 51.2305 35.2619 51.4837 35.3279C51.7355 35.3886 51.9922 35.3797 52.2538 35.3012C52.5155 35.2227 52.7359 35.0885 52.9151 34.8985C53.0979 34.7018 53.2187 34.4641 53.2773 34.1853C53.3345 33.9014 53.3163 33.5976 53.2225 33.2738ZM56.3291 29.941C56.6933 29.8317 57.0348 29.8172 57.3535 29.8975C57.6775 29.9763 57.9416 30.1184 58.1461 30.3239L57.9193 29.5405L58.6273 29.3281L59.8973 33.7149C60.0106 34.1066 60.0291 34.4785 59.9526 34.8307C59.8776 35.188 59.7112 35.499 59.4533 35.7637C59.2005 36.0269 58.8714 36.2192 58.4661 36.3408C57.9121 36.507 57.4118 36.5123 56.9653 36.3568C56.5188 36.2014 56.1957 35.9038 55.996 35.4642L56.6885 35.2565C56.8411 35.4944 57.0606 35.6557 57.3471 35.74C57.635 35.8295 57.9484 35.8236 58.287 35.722C58.6717 35.6066 58.9492 35.3899 59.1192 35.0722C59.2944 34.7528 59.3178 34.3712 59.1893 33.9273L58.9285 33.0265C58.8625 33.3187 58.7178 33.5892 58.4943 33.8378C58.2708 34.0865 57.9768 34.2654 57.6126 34.3747C57.2381 34.4871 56.8697 34.4954 56.5075 34.3998C56.1504 34.3026 55.8354 34.1104 55.5627 33.8233C55.29 33.5362 55.0909 33.1759 54.9655 32.7424C54.8385 32.3037 54.8145 31.8937 54.8937 31.5124C54.9714 31.1258 55.1351 30.7958 55.3849 30.5222C55.6398 30.247 55.9545 30.0532 56.3291 29.941ZM58.5384 31.6791C58.4447 31.3553 58.2989 31.0925 58.1011 30.8907C57.9033 30.689 57.676 30.5585 57.4191 30.4994C57.1658 30.4335 56.9084 30.4398 56.6467 30.5183C56.385 30.5967 56.1647 30.731 55.9854 30.921C55.8063 31.1109 55.6873 31.3453 55.6286 31.6239C55.5699 31.9027 55.5874 32.2039 55.6811 32.5277C55.7764 32.8567 55.9237 33.1247 56.123 33.3317C56.3208 33.5335 56.5463 33.6672 56.7996 33.7332C57.0513 33.7939 57.3081 33.785 57.5697 33.7065C57.8314 33.628 58.0517 33.4938 58.231 33.3038C58.4137 33.1071 58.5345 32.8694 58.5932 32.5906C58.6504 32.3068 58.6321 32.0029 58.5384 31.6791Z" fill="#6C757D"/>
<path d="M83.1197 59.0262L82.8638 58.0021C82.4851 58.1106 82.1265 58.146 81.7888 58.1084C81.4534 58.066 81.1173 57.9443 80.7811 57.7433C80.4486 57.545 80.1885 57.3077 80.0004 57.0313C79.817 56.7577 79.7188 56.4655 79.7057 56.1547C79.6971 55.8466 79.7794 55.5423 79.9526 55.2417C80.1501 54.8989 80.4179 54.6548 80.7554 54.5094C81.1012 54.3621 81.504 54.3249 81.9644 54.3977C81.9195 54.1311 81.9083 53.9034 81.93 53.7145C81.9516 53.5257 82.0142 53.342 82.1169 53.1636C82.2364 52.9569 82.3937 52.8017 82.5902 52.6979C82.7932 52.5922 83.0194 52.5502 83.2673 52.572C83.5152 52.5937 83.7655 52.6803 84.0198 52.8318C84.2685 52.9805 84.4571 53.1593 84.5846 53.3681C84.7122 53.5769 84.7708 53.798 84.7603 54.0316C84.7531 54.2604 84.6817 54.4802 84.5485 54.6906L83.9187 54.3147C84.0343 54.1249 84.068 53.943 84.019 53.7689C83.9733 53.59 83.8626 53.4483 83.6877 53.3436C83.5032 53.2335 83.3219 53.1979 83.1446 53.2371C82.9737 53.2743 82.8413 53.3752 82.7466 53.5395C82.6656 53.6804 82.6239 53.8386 82.6223 54.0142C82.6247 54.1925 82.6608 54.4317 82.7298 54.7316L83.3211 57.0633L83.5593 56.9404L84.4924 56.4182L85.1703 56.8231L84.0271 57.4847C83.8674 57.5787 83.6893 57.6716 83.4944 57.7632L83.9436 59.5179L83.1197 59.0262ZM81.0972 57.1938C81.3467 57.3425 81.5986 57.4268 81.8537 57.4466C82.1137 57.4692 82.3929 57.4308 82.6921 57.3316L82.1097 55.0335C81.386 54.9111 80.8814 55.0987 80.5945 55.5966C80.4349 55.8737 80.3992 56.1616 80.4874 56.4604C80.5803 56.762 80.7835 57.0065 81.0972 57.1938ZM88.9682 55.9185C89.4937 56.2325 89.89 56.6047 90.1563 57.0353C90.4307 57.4639 90.5623 57.9243 90.551 58.4165C90.5454 58.9114 90.3978 59.4102 90.1082 59.9127C89.8186 60.4152 89.4632 60.79 89.042 61.0371C88.6272 61.2822 88.1699 61.3877 87.6685 61.3536C87.1751 61.3176 86.6649 61.1426 86.1394 60.8285L84.6376 59.9321L87.4663 55.022L88.9682 55.9185ZM86.4435 60.3002C87.066 60.6721 87.6372 60.789 88.1571 60.6511C88.6794 60.5085 89.115 60.1343 89.464 59.5285C89.8162 58.918 89.9245 58.3421 89.7897 57.801C89.6597 57.2626 89.2859 56.8088 88.6673 56.4398L87.7953 55.9192L85.5714 59.7797L86.4435 60.3002ZM92.1267 60.0575C92.3649 59.9029 92.6201 59.8251 92.8936 59.8242C93.1712 59.826 93.4584 59.9151 93.7537 60.0913L93.3718 60.7536L93.2057 60.6544C92.4997 60.233 91.9221 60.4121 91.4736 61.1917L90.2638 63.291L89.6341 62.915L91.8579 59.0546L92.4877 59.4306L92.1267 60.0575ZM93.9366 65.569C93.582 65.357 93.306 65.0819 93.1102 64.7441C92.9185 64.4089 92.827 64.0415 92.8335 63.6418C92.8479 63.2401 92.9706 62.8397 93.2001 62.4405C93.4279 62.0459 93.7111 61.748 94.0497 61.5466C94.3963 61.3433 94.7613 61.2485 95.144 61.2624C95.5291 61.2715 95.9021 61.3835 96.2615 61.5983C96.6217 61.8131 96.8993 62.0895 97.0951 62.4274C97.294 62.7606 97.3895 63.1271 97.3831 63.5267C97.3807 63.9293 97.2643 64.3301 97.0341 64.7293C96.8039 65.1285 96.5134 65.4283 96.162 65.629C95.8187 65.8276 95.4512 65.921 95.0613 65.9091C94.6714 65.8972 94.2968 65.7838 93.9366 65.569ZM94.2615 65.0055C94.4877 65.1404 94.7308 65.2131 94.9915 65.2235C95.2523 65.2339 95.505 65.1669 95.7489 65.0225C95.9984 64.8808 96.2118 64.655 96.3907 64.345C96.5688 64.0351 96.661 63.7363 96.6651 63.4487C96.6699 63.161 96.6049 62.9077 96.4709 62.6887C96.3393 62.465 96.1604 62.2856 95.9342 62.1507C95.7031 62.013 95.4601 61.9403 95.2041 61.9326C94.9554 61.923 94.7116 61.9918 94.4717 62.139C94.2318 62.2861 94.0224 62.5147 93.8435 62.8247C93.6622 63.1394 93.5651 63.4378 93.5515 63.7199C93.5419 64.0048 93.6012 64.2577 93.728 64.4786C93.858 64.6949 94.0353 64.8705 94.2615 65.0055ZM99.2941 64.4498C99.5452 64.3035 99.8356 64.2304 100.164 64.2309C100.5 64.2293 100.831 64.3263 101.159 64.5218C101.495 64.7229 101.753 64.9869 101.93 65.3138C102.112 65.6434 102.195 66.0053 102.179 66.3995C102.165 66.7891 102.045 67.1811 101.818 67.5755C101.593 67.9653 101.314 68.2661 100.982 68.4777C100.649 68.6893 100.295 68.797 99.9214 68.8008C99.5516 68.8074 99.1986 68.7102 98.8616 68.5091C98.5391 68.3163 98.2944 68.0727 98.1292 67.7785C97.9711 67.4822 97.8917 67.1851 97.8893 66.8872L96.4244 69.4303L95.7946 69.0544L99.0742 63.3624L99.704 63.7383L99.2941 64.4498ZM101.174 67.1914C101.342 66.9001 101.43 66.6121 101.439 66.3272C101.449 66.0423 101.386 65.7843 101.253 65.5532C101.124 65.3248 100.942 65.1404 100.707 64.9999C100.476 64.8621 100.228 64.7928 99.9615 64.7917C99.7032 64.7888 99.4497 64.8619 99.2026 65.011C98.9635 65.1582 98.7606 65.375 98.5961 65.6615C98.4276 65.9527 98.3378 66.243 98.3265 66.5326C98.3217 66.8203 98.3827 67.0806 98.5087 67.3138C98.6418 67.5449 98.8239 67.7293 99.055 67.8671C99.2901 68.0075 99.5371 68.0792 99.7963 68.0822C100.062 68.0832 100.315 68.0101 100.554 67.863C100.797 67.7111 101.004 67.4872 101.174 67.1914Z" fill="#17A2B8"/>
<path d="M123.631 25.9902C125.027 28.3144 126.6 33.7375 121.729 36.8365" stroke="#17A2B8"/>
<path d="M7.57069 9.7207C7.06331 12.5614 7.6468 18.3202 14.0397 18.6301" stroke="#17A2B8"/>
<path d="M1.10156 23.279C4.3995 22.1169 10.691 21.4971 9.47322 28.3147C9.21955 30.3807 10.4627 33.583 17.4644 29.8643" stroke="#1D8BF8"/>
<path d="M77.2101 35.2873L69.5251 6.05271C68.8256 3.39186 66.1097 1.84052 63.5141 2.61928L23.2254 14.7077C20.6754 15.4728 19.2175 18.1973 19.9691 20.7932L31.7975 61.644C32.5456 64.2276 35.2021 65.7121 37.745 64.9677L65.033 56.9798" stroke="#CED4DA"/>
<path d="M90.0152 12.5373L86.3584 9.51781C85.8423 9.0916 85.0844 9.17203 84.6657 9.69745L81.5742 13.5772C81.1555 14.1026 81.2345 14.874 81.7506 15.3002L85.4074 18.3197C85.9235 18.746 86.6814 18.6655 87.1001 18.1401L90.1916 14.2604C90.6103 13.735 90.5313 12.9635 90.0152 12.5373Z" stroke="#DEE2E6"/>
<path d="M48.1597 76.84L44.5029 73.8205C43.9868 73.3943 43.2289 73.4748 42.8103 74.0002L39.7187 77.8799C39.3 78.4053 39.379 79.1768 39.8952 79.603L43.5519 82.6225C44.0681 83.0487 44.8259 82.9683 45.2446 82.4428L48.3362 78.5631C48.7549 78.0377 48.6758 77.2663 48.1597 76.84Z" stroke="#17A2B8"/>
<path d="M16.7015 46.1334C17.7523 46.1334 18.6041 45.2663 18.6041 44.1966C18.6041 43.1269 17.7523 42.2598 16.7015 42.2598C15.6507 42.2598 14.7988 43.1269 14.7988 44.1966C14.7988 45.2663 15.6507 46.1334 16.7015 46.1334Z" fill="#FFC107"/>
<path d="M125.537 74.7975C126.588 74.7975 127.44 73.9303 127.44 72.8607C127.44 71.791 126.588 70.9238 125.537 70.9238C124.487 70.9238 123.635 71.791 123.635 72.8607C123.635 73.9303 124.487 74.7975 125.537 74.7975Z" fill="#FFC107"/>
<path d="M50.9521 75.5722C51.5826 75.5722 52.0937 75.0519 52.0937 74.4101C52.0937 73.7683 51.5826 73.248 50.9521 73.248C50.3217 73.248 49.8105 73.7683 49.8105 74.4101C49.8105 75.0519 50.3217 75.5722 50.9521 75.5722Z" fill="#DEE2E6"/>
<path d="M137.333 45.7262C139.634 45.7262 141.498 43.8278 141.498 41.4861C141.498 39.1444 139.634 37.2461 137.333 37.2461C135.033 37.2461 133.168 39.1444 133.168 41.4861C133.168 43.8278 135.033 45.7262 137.333 45.7262Z" stroke="#CED4DA"/>
<path d="M122.205 50.5125L85.8668 28.8209C83.7647 27.5661 81.0612 28.2836 79.8285 30.4234L58.6814 67.1333C57.4487 69.2732 58.1535 72.0252 60.2557 73.28L96.5938 94.9716C98.6959 96.2264 101.399 95.5089 102.632 93.369L123.779 56.6592C125.012 54.5193 124.307 51.7673 122.205 50.5125Z" stroke="#17A2B8"/>
</g>
<defs>
<clipPath id="clip0_3470_39019">
<rect width="142" height="98" fill="white" transform="translate(0.5 0.5)"/>
</clipPath>
</defs>
</svg>
