<svg width="972" height="670" viewBox="0 0 972 670" fill="none" xmlns="http://www.w3.org/2000/svg">
<path d="M972 0L47 304.5L47 366L972 670V0Z" fill="#1F6ADB"/>
<path d="M67.2853 298.843C67.0381 298.745 66.782 298.671 66.5206 298.623C66.7819 298.672 67.038 298.746 67.2853 298.843V298.843ZM65.6425 298.561H65.7219H65.6425ZM65.7219 298.561C65.7683 298.561 65.8169 298.561 65.8677 298.561H65.9131C66.0151 298.561 66.1156 298.571 66.2144 298.582C66.114 298.569 66.0135 298.563 65.9115 298.56C65.8467 298.553 65.7835 298.555 65.7219 298.556V298.561Z" fill="white"/>
<path d="M46.903 308.301H46.9143V305.576H46.8738V305.529C46.8738 304.965 46.8738 299.467 46.8738 297.011C46.8738 295.681 46.195 295.164 44.8827 295.475C31.193 298.72 0.0518438 306.224 0.0518438 306.224L9.77233 305.649C9.88259 305.643 9.993 305.659 10.0968 305.697C10.2005 305.735 10.2955 305.793 10.3757 305.869C10.456 305.945 10.5199 306.036 10.5635 306.138C10.6071 306.239 10.6295 306.349 10.6294 306.459V363.94C10.6296 364.05 10.6071 364.16 10.5634 364.261C10.5197 364.363 10.4556 364.454 10.3752 364.53C10.2947 364.606 10.1996 364.665 10.0956 364.702C9.99168 364.74 9.8811 364.756 9.77071 364.75L0 364.168C0 364.168 41.1598 374.036 44.8762 374.912C46.1885 375.223 46.8657 374.705 46.8689 373.375C46.8689 372.393 46.8689 371.411 46.8689 370.428V364.79H46.9094V362.067H46.8981L46.903 308.301ZM42.1529 368.497C42.1542 368.614 42.13 368.731 42.0819 368.838C42.0338 368.945 41.963 369.04 41.8744 369.117C41.7858 369.194 41.6815 369.251 41.5687 369.284C41.456 369.317 41.3374 369.325 41.2213 369.307L14.0866 365.171C13.8934 365.142 13.7174 365.043 13.5909 364.895C13.4643 364.746 13.3959 364.556 13.3981 364.361V306.012C13.3978 305.818 13.4672 305.63 13.5935 305.483C13.7199 305.336 13.8948 305.239 14.0866 305.21L41.2213 301.08C41.3366 301.063 41.4543 301.071 41.5664 301.103C41.6785 301.135 41.7823 301.191 41.8707 301.267C41.9592 301.343 42.0302 301.437 42.0789 301.543C42.1275 301.649 42.1528 301.764 42.1529 301.881V368.497Z" fill="#1D8BF8"/>
<path d="M64.9622 305.523V364.861C64.9622 366.52 64.5053 366.904 62.8561 366.705C58.0056 366.12 47.6484 364.883 46.9193 364.795V362.067H59.415C59.6299 362.067 59.8359 361.982 59.9878 361.83C60.1397 361.678 60.2251 361.472 60.2251 361.257V309.111C60.2251 308.896 60.1397 308.69 59.9878 308.538C59.8359 308.387 59.6299 308.301 59.415 308.301H46.9145V305.576C47.7002 305.482 59.6564 304.045 63.3842 303.6C64.2963 303.491 64.9314 304.066 64.9622 304.99C64.967 305.165 64.9622 305.343 64.9622 305.523Z" fill="white"/>
<path d="M73.5384 302.696C73.5497 303.196 73.3197 303.541 72.8158 303.558C72.312 303.574 72.0836 303.255 72.0495 302.748C71.8065 299.144 69.5093 296.828 65.8819 296.488C65.3959 296.442 64.9552 296.293 64.9811 295.723C65.0071 295.153 65.4461 294.992 65.9807 295H66.1881H66.3258L66.5348 295.016C66.6174 295.016 66.6968 295.033 66.7794 295.044C66.862 295.055 66.9042 295.06 66.9657 295.072C67.0273 295.083 67.1115 295.094 67.1844 295.109C67.2233 295.109 67.2606 295.122 67.2978 295.13L67.4177 295.156L67.617 295.203C67.6948 295.222 67.779 295.245 67.8519 295.268L67.9102 295.284C67.9869 295.306 68.0631 295.331 68.1387 295.357L68.312 295.417C68.3703 295.436 68.427 295.459 68.4837 295.481L68.5809 295.532C68.6113 295.542 68.6411 295.555 68.67 295.569C68.7608 295.608 68.8515 295.647 68.9406 295.689C69.0297 295.731 69.0864 295.757 69.1577 295.794L69.3019 295.869L69.3975 295.922L69.5384 296.001C69.6615 296.071 69.783 296.145 69.9029 296.225C69.9434 296.253 69.9839 296.279 70.0244 296.308C70.9069 296.908 71.6632 297.675 72.2504 298.566C72.3071 298.654 72.3638 298.743 72.4124 298.832C72.461 298.921 72.5226 299.016 72.5744 299.112C72.6263 299.208 72.6765 299.302 72.7251 299.397C72.7737 299.493 72.8191 299.59 72.8628 299.689C72.8628 299.708 72.8806 299.728 72.8904 299.749C72.9001 299.77 72.9244 299.828 72.9406 299.867C72.9957 299.998 73.0459 300.129 73.0929 300.264C73.122 300.345 73.1496 300.426 73.1755 300.507C73.1998 300.585 73.2241 300.669 73.2468 300.743C73.2808 300.863 73.3116 300.983 73.3391 301.105C73.3618 301.202 73.3829 301.299 73.4007 301.398C73.4185 301.497 73.4363 301.596 73.4509 301.694C73.4655 301.793 73.4784 301.894 73.4882 301.993C73.4979 302.091 73.506 302.182 73.5125 302.276C73.519 302.37 73.5238 302.483 73.5271 302.589C73.5368 302.592 73.5368 302.644 73.5384 302.696Z" fill="white"/>
<path d="M69.9871 302.649C70.0001 303.135 69.8365 303.511 69.3197 303.559C68.8029 303.608 68.568 303.264 68.4918 302.788C68.197 300.967 67.5311 300.295 65.7782 300.053C65.3035 299.987 64.9438 299.788 64.9681 299.258C64.9705 299.204 64.9775 299.149 64.9892 299.096C64.9885 299.084 64.9885 299.072 64.9892 299.06C64.9909 299.048 64.9942 299.036 64.9989 299.025C64.9989 299.002 65.0135 298.981 65.0216 298.96C65.0293 298.941 65.0379 298.923 65.0475 298.905C65.0468 298.903 65.0464 298.901 65.0464 298.899C65.0464 298.897 65.0468 298.895 65.0475 298.894C65.0557 298.877 65.0649 298.862 65.0751 298.847C65.0959 298.811 65.1222 298.78 65.1528 298.753L65.2031 298.707C65.2217 298.693 65.2412 298.68 65.2614 298.668L65.3051 298.646C65.3083 298.645 65.3117 298.645 65.3148 298.646L65.3408 298.633L65.3877 298.615L65.4185 298.605C65.4298 298.6 65.4418 298.596 65.4542 298.594L65.5076 298.581H65.5433C65.5659 298.581 65.5903 298.581 65.6146 298.571H65.6891C65.7506 298.571 65.8138 298.571 65.8786 298.571C65.9807 298.571 66.0811 298.581 66.1816 298.594H66.2172L66.3339 298.61C66.3836 298.616 66.4338 298.625 66.4845 298.634C66.7576 298.677 67.0257 298.747 67.2849 298.843C67.5521 298.949 67.8078 299.082 68.0479 299.24C68.1192 299.286 68.1872 299.334 68.2553 299.386C68.3014 299.418 68.3457 299.452 68.3881 299.488L68.4805 299.563C68.5582 299.627 68.6328 299.695 68.704 299.767L68.777 299.84C68.8207 299.882 68.8612 299.927 68.9017 299.972C68.9843 300.063 69.0637 300.159 69.1366 300.256C69.1755 300.306 69.2111 300.356 69.2451 300.407C69.3884 300.611 69.5126 300.828 69.6162 301.055L69.6567 301.144L69.6858 301.213C69.6988 301.243 69.7101 301.275 69.7215 301.304C69.7652 301.419 69.8057 301.536 69.8381 301.656C69.8575 301.719 69.8737 301.784 69.8883 301.849C69.9029 301.913 69.9126 301.959 69.9224 302.011C69.9321 302.062 69.9483 302.158 69.958 302.231C69.9752 302.37 69.985 302.509 69.9871 302.649V302.649Z" fill="white"/>
</svg>
